<svg version="1.2" xmlns="http://www.w3.org/2000/svg" viewBox="0 0 93 93" width="32" height="32">
	<defs>
		<clipPath clipPathUnits="userSpaceOnUse" id="cp1">
			<path d="m29.09 14.65h34.91v64.06h-34.91z"/>
		</clipPath>
	</defs>
	<style>
		.s0 { fill: #ffacca } 
		.s1 { fill: #2d0011 } 
	</style>
	<path fill-rule="evenodd" class="s0" d="m8 0h76.98c4.42 0 8 3.58 8 8v76.98c0 4.42-3.58 8-8 8h-76.98c-4.42 0-8-3.58-8-8v-76.98c0-4.42 3.58-8 8-8z"/>
	<g id="Clip-Path" clip-path="url(#cp1)">
		<g>
			<path class="s1" d="m29.6 37.84c0.53-0.72 1.04-1.25 1.72-1.7q1.44-0.97 3.06-1.59c1.35-0.51 2.68-0.94 4.07-1.33 2.43-0.66 4.82-1.19 7.29-1.68l6.68-1.32c1.75-0.35 3.43-0.74 5.15-1.21 1.14-0.33 2.2-0.71 3.22-1.29 2.94-1.61 3.39-4.65 3.15-7.74q-0.23-2.68-0.82-5.31c-0.22 0.67-0.51 1.19-1 1.64-0.47 0.49-1.06 0.81-1.65 1.18-0.86 0.41-1.7 0.74-2.62 1-1.69 0.51-3.37 0.92-5.11 1.29l-7.86 1.67c-1.88 0.39-3.68 0.86-5.52 1.39-2.49 0.72-5.29 1.78-7.29 3.45q-1.57 1.33-1.98 3.33c-0.57 2.92-0.61 5.23-0.51 8.24zm20.79 5.72l7.3-1.37c0.9-0.21 5.49-1.07 5.45-2.15 0-0.51-1.18-0.92-1.63-1.06q-1.22-0.38-2.49-0.63l-4.38-0.82c-3.1-0.57-6.17-1.12-9.23-1.84-2.31-0.53-4.53-1.12-6.76-1.82l-2.41 0.74c-0.98 0.3-1.88 0.69-2.82 1.1-1.29 0.61-4.11 2.25-3.27 4.03 0.51 1.06 1.88 1.75 2.9 2.28 3.11 1.41 6.27 2.39 9.58 3.23 2.6-0.67 5.13-1.23 7.79-1.74zm-21.09 19.47c3.13-4.08 13.77-6.94 18.65-7.84l5.36-1c2.33-0.43 5.23-0.86 7.27-1.98 2.04-1.13 2.61-3.13 2.9-5.3 0.26-2.02 0.31-4.02 0.2-6.14q-0.57 0.58-1.37 0.89c-2.12 0.84-4.47 1.25-6.74 1.68l-7.98 1.53c-2.23 0.43-4.35 0.98-6.52 1.59-3.17 0.92-7.41 2.44-9.78 4.76q-1.43 1.42-1.76 3.46c-0.23 1.41-0.35 2.77-0.41 4.2-0.06 1.31 0.04 2.8 0.21 4.15zm14.52 10.15c0.71 0.64 1.33 1.25 1.84 2.03 0.75 1.04 1.12 2.16 1.24 3.51 1.11-3.19 1.74-7.56 1.02-10.83-0.53-2.37-1.9-4.27-3.79-5.72-1.99-1.45-4.03-2.43-6.24-3.45-2.53 1-5.14 2.13-7.23 3.86q-0.46 0.43-0.79 0.94c-0.84 1.35 0.59 2.39 1.63 2.96 0.94 0.53 1.9 0.96 2.88 1.41l2.7 1.25c2.24 1.04 4.82 2.45 6.74 4.06z"/>
			<path class="s1" d="m29.31 63.02c-0.16-1.35-0.26-2.84-0.2-4.14 0.06-1.43 0.18-2.8 0.41-4.21 0.22-1.41 0.78-2.49 1.76-3.46 2.37-2.3 6.61-3.84 9.78-4.75 2.17-0.64 4.29-1.19 6.52-1.6l7.98-1.53c2.27-0.43 4.62-0.84 6.74-1.67q0.8-0.32 1.37-0.9c0.11 2.12 0.06 4.12-0.2 6.14-0.29 2.17-0.88 4.19-2.9 5.3-2.02 1.1-4.95 1.53-7.27 1.98l-5.36 1c-4.86 0.92-15.5 3.78-18.65 7.84z"/>
			<path class="s1" d="m29.6 37.84c-0.08-3.01-0.06-5.32 0.51-8.24q0.41-2 1.98-3.33c2-1.67 4.8-2.73 7.3-3.45 1.83-0.53 3.63-0.98 5.51-1.39l7.87-1.67c1.73-0.37 3.41-0.78 5.1-1.29 0.92-0.27 1.76-0.61 2.62-1 0.59-0.35 1.18-0.67 1.65-1.19 0.47-0.44 0.78-0.96 1-1.63 0.39 1.78 0.66 3.51 0.82 5.31 0.24 3.09-0.21 6.13-3.15 7.74-1.02 0.58-2.08 0.96-3.22 1.29-1.72 0.49-3.4 0.86-5.15 1.21l-6.68 1.32c-2.47 0.49-4.86 1.02-7.29 1.68-1.41 0.39-2.72 0.82-4.07 1.33-1.08 0.45-2.1 0.94-3.06 1.59-0.68 0.45-1.21 0.98-1.72 1.69z"/>
			<path class="s1" d="m50.4 43.55c-2.66 0.49-5.19 1.07-7.79 1.74-3.31-0.84-6.49-1.82-9.58-3.23-1.02-0.53-2.39-1.22-2.9-2.28-0.84-1.76 2-3.4 3.27-4.03 0.94-0.41 1.84-0.82 2.82-1.1l2.41-0.74q3.33 1.03 6.76 1.82c3.09 0.72 6.13 1.27 9.23 1.84l4.38 0.82q1.27 0.24 2.49 0.63c0.45 0.14 1.61 0.55 1.63 1.06 0.04 1.08-4.55 1.94-5.45 2.15l-7.29 1.37z"/>
		</g>
	</g>
</svg>