<svg width="18" height="37" viewBox="0 0 18 37" fill="none" xmlns="http://www.w3.org/2000/svg">
<path d="M17.7991 2.34995C17.8991 4.18995 17.6891 5.99995 16.1991 6.95995C15.6791 7.29995 15.1391 7.52995 14.5591 7.71995C13.6891 8.00995 12.8291 8.22995 11.9391 8.43995L8.5291 9.23995C7.2691 9.52995 6.0391 9.84995 4.8091 10.24C4.0891 10.47 3.4191 10.72 2.7291 11.03C2.1691 11.29 1.6491 11.59 1.1591 11.98C0.809101 12.25 0.549101 12.56 0.279101 12.99C0.229101 11.2 0.249101 9.81995 0.539101 8.08995C0.669101 7.29995 1.0191 6.62995 1.5491 6.10995C2.5691 5.10995 3.9991 4.47995 5.2691 4.04995C6.2091 3.72995 7.1291 3.45995 8.0891 3.22995L12.0991 2.23995C12.9891 2.01995 13.8391 1.77995 14.7091 1.46995C15.1791 1.30995 15.6091 1.10995 16.0391 0.869953C16.3491 0.659953 16.6391 0.469953 16.8891 0.169953C16.8891 0.169953 17.6391 -0.880047 17.8091 2.35995L17.7991 2.34995Z" fill="#2D0011"></path>
<path d="M15.2815 13.3099L13.0515 12.8299C11.4715 12.4899 9.90149 12.1599 8.33149 11.7399C7.16149 11.4199 6.01149 11.0699 4.88149 10.6599L3.64149 11.0899C3.14149 11.2699 2.68149 11.5099 2.20149 11.7499C1.55149 12.1199 0.101486 13.0899 0.531486 14.1399C0.791486 14.7799 1.49149 15.1899 2.01149 15.4999C3.59149 16.3399 5.22149 16.9199 6.91149 17.4199C8.24149 17.0199 9.53149 16.6899 10.8915 16.3899L14.6115 15.5799C15.0715 15.4599 17.4215 14.9499 17.4015 14.3099C17.4015 13.9999 16.7915 13.7599 16.5615 13.6799C16.1415 13.5299 15.7315 13.3999 15.2915 13.3099H15.2815Z" fill="#2D0011"></path>
<path d="M16.9588 15.27C15.8788 15.77 14.6688 16.01 13.5188 16.27L9.4388 17.18C8.3088 17.43 7.2188 17.76 6.1088 18.13C4.4888 18.68 2.3288 19.58 1.1088 20.96C0.6188 21.52 0.3288 22.22 0.2188 23.01C0.0988 23.85 0.0388 24.67 0.0088 25.51C-0.0212 26.29 0.0288 27.18 0.1088 27.98C1.7088 25.55 7.1388 23.85 9.6288 23.3L12.3588 22.7C13.5488 22.44 15.0288 22.19 16.0688 21.53C17.0988 20.87 17.4088 19.66 17.5488 18.38C17.6788 17.17 17.6988 15.98 17.6588 14.72C17.4588 14.95 17.2288 15.13 16.9588 15.26V15.27Z" fill="#2D0011"></path>
<path d="M8.46775 35.2399C8.67775 35.5799 8.82775 35.9399 8.92775 36.3199C8.92775 36.3199 8.92775 36.3399 8.93775 36.3399C9.23775 37.5699 9.65775 34.4599 9.71775 33.9699C9.80775 32.8899 9.79775 31.8099 9.61775 30.8799C9.34775 29.4699 8.64775 28.3399 7.67775 27.4699C6.66775 26.6099 5.62775 26.0199 4.48775 25.4099C3.19775 26.0099 1.86775 26.6799 0.797752 27.6999C0.647752 27.8799 0.497752 28.0499 0.387752 28.2599C-0.0422485 29.0599 0.687752 29.6799 1.22775 30.0299C1.70775 30.3399 2.19775 30.5999 2.69775 30.8699L4.07775 31.6199C5.22775 32.2399 6.53775 33.0799 7.51775 34.0399C7.87775 34.4099 8.19775 34.7899 8.45775 35.2399H8.46775Z" fill="#2D0011"></path>
</svg>